# xmcd CD database file
#
# Track frame offsets:
#	150
#	33770
#	59590
#	80087
#	109365
#	134630
#	159720
#	190667
#	220932
#
# Disc length: 3313 seconds
#
# Revision: 0
# Processed by: cddbd v1.5.1PL0 Copyright (c) Steve Scherf et al.
# Submitted via: CDex 1.51
#
DISCID=840cef09
DTITLE=Jukka Perko - Kaanaanmaa
DYEAR=2002
DGENRE=Jazz
TTITLE0=Suojelusenkeli (Maan korvessa kulkevi lapsosen tie)
TTITLE1=Jumala ompi linnamme
TTITLE2=Min‰ vaivainen, vain mato matkamies maan
TTITLE3=Nyt maailman ahdistavan
TTITLE4=Sinuhun turvaan Jumala
TTITLE5=Mua siipeis suojaan k‰tke
TTITLE6=Kaanaanmaa
TTITLE7=Herraa hyv‰‰ kiitt‰k‰‰
TTITLE8=Oi, muistatko viel‰ sen virren
EXTD=YEAR: 2002
EXTT0=
EXTT1=
EXTT2=
EXTT3=
EXTT4=
EXTT5=
EXTT6=
EXTT7=
EXTT8=
PLAYORDER=
